# xmcd
#
# Track frame offsets: 
#        150
#        11792
#        25727
#        37310
#        48105
#        58850
#        69052
#        79532
#        91635
#        105400
#        116010
#        127917
#        141205
#        154132
#        166640
#        178785
#        191097
#        202352
#        216270
#        227700
#
# Disc length: 3135 seconds
#
# Revision: 2
# Processed by: cddbd v1.4PL0 Copyright (c) Steve Scherf et al.
# Submitted via: ExactAudioCopy v0.95a3
#
DISCID=0d0c3d14
DTITLE=Jim Reeves - Gospel Favorites
DYEAR=1996
DGENRE=Gospel
TTITLE0=I'll Fly Away
TTITLE1=Whispering Hope
TTITLE2=An Evening Prayer
TTITLE3=Take My Hand Precious Lord
TTITLE4=Where We'll Never Grow Old
TTITLE5=A Beautiful Life
TTITLE6=In The Garden
TTITLE7=God Be With You
TTITLE8=Trouble In The Amen Corner
TTITLE9=Scarlet Ribbons
TTITLE10=May The Good Lord Bless And Keep You
TTITLE11=It Is No Secret
TTITLE12=Oh Gentle Sheperd
TTITLE13=I'd Rather Have Jesus
TTITLE14=He Will
TTITLE15=Precious Memories
TTITLE16=How Long Has It Been
TTITLE17=Have Thine Own Way, Lord
TTITLE18=Where Do I Go From Here
TTITLE19=Teach Me How To Pray
EXTD=
EXTT0=
EXTT1=
EXTT2=
EXTT3=
EXTT4=
EXTT5=
EXTT6=
EXTT7=
EXTT8=
EXTT9=
EXTT10=
EXTT11=
EXTT12=
EXTT13=
EXTT14=
EXTT15=
EXTT16=
EXTT17=
EXTT18=
EXTT19=
PLAYORDER=
